# xmcd CD database file
#
# Track frame offsets:
#	150
#	21799
#	44543
#	68766
#	89739
#	114131
#	134885
#	160819
#	178919
#	190832
#	212355
#	240045
#	263228
#
# Disc length: 3798 seconds
#
# Revision: 0
# Processed by: cddbd v1.5.2PL0 Copyright (c) Steve Scherf et al.
# Submitted via: CDex 1.50beta9
#
DISCID=b10ed40d
DTITLE=Various Artist - Wave Music Vol. 10 [CD 2)
DYEAR=2006
DGENRE=Jazz
TTITLE0=Bah Samba - Inner Soul
TTITLE1=Jason Mraz - Bella Luna
TTITLE2=Donati - Nao Diga Nao
TTITLE3=Camiel - El Alba
TTITLE4=Melissa Manchester - When Paris Was A Woman
TTITLE5=Brigette - Starlight Lounge
TTITLE6=Cantoma - Essarai
TTITLE7=Rosalia De Souza - Voz Da Lapa
TTITLE8=David Poe - Love Is Red
TTITLE9=Till Brönner - She Was Too Good To Me
TTITLE10=Jonathan Butler - No Woman No Cry
TTITLE11=Doky Brothers - Waiting In Vain
TTITLE12=Karen Souza - Wild Horses
EXTD=YEAR: 2006
EXTT0=
EXTT1=
EXTT2=
EXTT3=
EXTT4=
EXTT5=
EXTT6=
EXTT7=
EXTT8=
EXTT9=
EXTT10=
EXTT11=
EXTT12=
PLAYORDER=
